<svg width="64" height="64" viewBox="0 0 64 64" fill="none" xmlns="http://www.w3.org/2000/svg">
<rect width="64" height="64" rx="32" fill="#FF7E9D"/>
<g filter="url(#filter0_di_2021_639)">
<path d="M44.7998 37.1211C45.5066 37.1212 46.08 37.6936 46.0801 38.4004V39.6807C46.0801 40.4169 45.7243 41.0462 45.3047 41.4658C44.885 41.8854 44.2558 42.2402 43.5195 42.2402H20.4795C19.7433 42.2402 19.1139 41.8854 18.6943 41.4658C18.2747 41.0462 17.9199 40.4169 17.9199 39.6807V38.4004C17.92 37.6937 18.4926 37.1213 19.1992 37.1211C19.9061 37.1211 20.4794 37.6936 20.4795 38.4004V39.625L20.4805 39.626C20.4869 39.635 20.4949 39.6453 20.5049 39.6553C20.5149 39.6652 20.5252 39.6733 20.5342 39.6797L20.5352 39.6807H43.4639L43.4648 39.6797C43.4739 39.6733 43.4851 39.6653 43.4951 39.6553C43.5049 39.6454 43.5122 39.6349 43.5186 39.626L43.5195 39.625V38.4004C43.5197 37.6936 44.093 37.1211 44.7998 37.1211ZM29.4395 26.8809C30.1462 26.8809 30.7195 27.4534 30.7197 28.1602V35.8408C30.7196 36.5477 30.1463 37.1211 29.4395 37.1211C28.9201 37.121 28.4741 36.8107 28.2734 36.3662C27.4951 36.844 26.5799 37.1211 25.5996 37.1211C22.772 37.1211 20.4797 34.8285 20.4795 32.001C20.4795 29.1733 22.7719 26.8809 25.5996 26.8809C26.5798 26.8809 27.4951 27.1571 28.2734 27.6348C28.4741 27.1904 28.9202 26.8809 29.4395 26.8809ZM34.5596 24.3203C35.2665 24.3203 35.8398 24.8937 35.8398 25.6006V27.5684C36.5931 27.1324 37.4665 26.8809 38.3994 26.8809C41.2271 26.8809 43.5195 29.1733 43.5195 32.001C43.5193 34.8285 41.227 37.1211 38.3994 37.1211C37.4192 37.121 36.5039 36.844 35.7256 36.3662C35.5249 36.8107 35.079 37.1211 34.5596 37.1211C33.8527 37.1211 33.2794 36.5476 33.2793 35.8408V25.6006C33.2793 24.8937 33.8527 24.3204 34.5596 24.3203ZM25.5996 29.4404C24.1858 29.4405 23.04 30.5871 23.04 32.001C23.0402 33.4147 24.1859 34.5605 25.5996 34.5605C27.0133 34.5605 28.159 33.4147 28.1592 32.001C28.1592 30.5871 27.0135 29.4404 25.5996 29.4404ZM38.3994 29.4404C36.9857 29.4406 35.8398 30.5872 35.8398 32.001C35.84 33.4146 36.9858 34.5604 38.3994 34.5605C39.8131 34.5605 40.9598 33.4147 40.96 32.001C40.96 30.5871 39.8133 29.4404 38.3994 29.4404Z" fill="white"/>
</g>
<defs>
<filter id="filter0_di_2021_639" x="13.9199" y="20.3203" width="36.1602" height="29.9199" filterUnits="userSpaceOnUse" color-interpolation-filters="sRGB">
<feFlood flood-opacity="0" result="BackgroundImageFix"/>
<feColorMatrix in="SourceAlpha" type="matrix" values="0 0 0 0 0 0 0 0 0 0 0 0 0 0 0 0 0 0 127 0" result="hardAlpha"/>
<feOffset dy="4"/>
<feGaussianBlur stdDeviation="2"/>
<feComposite in2="hardAlpha" operator="out"/>
<feColorMatrix type="matrix" values="0 0 0 0 0 0 0 0 0 0 0 0 0 0 0 0 0 0 0.16 0"/>
<feBlend mode="normal" in2="BackgroundImageFix" result="effect1_dropShadow_2021_639"/>
<feBlend mode="normal" in="SourceGraphic" in2="effect1_dropShadow_2021_639" result="shape"/>
<feColorMatrix in="SourceAlpha" type="matrix" values="0 0 0 0 0 0 0 0 0 0 0 0 0 0 0 0 0 0 127 0" result="hardAlpha"/>
<feOffset dy="-4"/>
<feGaussianBlur stdDeviation="2"/>
<feComposite in2="hardAlpha" operator="arithmetic" k2="-1" k3="1"/>
<feColorMatrix type="matrix" values="0 0 0 0 0 0 0 0 0 0 0 0 0 0 0 0 0 0 0.16 0"/>
<feBlend mode="normal" in2="shape" result="effect2_innerShadow_2021_639"/>
</filter>
</defs>
</svg>
