<svg width="64" height="64" viewBox="0 0 64 64" fill="none" xmlns="http://www.w3.org/2000/svg">
<rect width="64" height="64" rx="32" fill="#00C8C8"/>
<g filter="url(#filter0_di_2021_581)">
<path d="M33.7292 17.9272C34.0522 17.8954 34.378 17.9458 34.6761 18.0741L34.823 18.1447L34.963 18.2278C35.2804 18.434 35.5308 18.7303 35.6811 19.0803C35.8529 19.4805 35.8841 19.9273 35.7686 20.3472C35.764 20.3638 35.7588 20.3802 35.7536 20.3966L33.2961 28.1022C33.2898 28.122 33.2827 28.1415 33.2755 28.161H42.2398C42.7228 28.1601 43.1964 28.2961 43.6055 28.5528C44.0157 28.8104 44.3445 29.1791 44.5536 29.616C44.7627 30.053 44.8436 30.5405 44.7867 31.0216C44.7299 31.5027 44.5375 31.9579 44.2323 32.3341C44.2084 32.3635 44.1831 32.3919 44.1567 32.4191L31.4848 45.4753L31.4836 45.4741C31.2036 45.7736 30.8361 45.9774 30.4317 46.0522C30.0035 46.1314 29.5607 46.0633 29.1767 45.8578C28.7928 45.6525 28.4904 45.3223 28.3186 44.9222C28.1468 44.5221 28.1156 44.0752 28.2311 43.6553L28.2461 43.606L30.7036 35.9003L30.7242 35.841H21.7598V35.8403C21.2769 35.8412 20.8033 35.7065 20.3942 35.4497C19.9839 35.1922 19.6552 34.8229 19.4461 34.386C19.2371 33.9491 19.1562 33.4619 19.213 32.981C19.2698 32.4999 19.4622 32.0447 19.7673 31.6685L19.843 31.5835L32.5148 18.5272L32.5155 18.5285C32.7955 18.2287 33.1633 18.0245 33.568 17.9497L33.7292 17.9272ZM21.7623 33.281H30.7198C31.1325 33.2803 31.5393 33.3799 31.9055 33.5703C32.2727 33.7614 32.5883 34.0387 32.8248 34.3785C33.0614 34.7182 33.2124 35.1102 33.2642 35.521C33.3133 35.9109 33.27 36.3063 33.1417 36.6772L33.1423 36.6778L31.5205 41.7622L42.2373 30.721H33.2798V30.7203C32.8672 30.721 32.4604 30.6227 32.0942 30.4322C31.7269 30.2411 31.4114 29.9639 31.1748 29.6241C30.9382 29.2843 30.7872 28.8918 30.7355 28.481C30.6863 28.0908 30.7289 27.6952 30.8573 27.3241L32.4786 22.2397L21.7623 33.281Z" fill="white"/>
</g>
<defs>
<filter id="filter0_di_2021_581" x="15.1953" y="13.918" width="33.6094" height="40.166" filterUnits="userSpaceOnUse" color-interpolation-filters="sRGB">
<feFlood flood-opacity="0" result="BackgroundImageFix"/>
<feColorMatrix in="SourceAlpha" type="matrix" values="0 0 0 0 0 0 0 0 0 0 0 0 0 0 0 0 0 0 127 0" result="hardAlpha"/>
<feOffset dy="4"/>
<feGaussianBlur stdDeviation="2"/>
<feComposite in2="hardAlpha" operator="out"/>
<feColorMatrix type="matrix" values="0 0 0 0 0 0 0 0 0 0 0 0 0 0 0 0 0 0 0.16 0"/>
<feBlend mode="normal" in2="BackgroundImageFix" result="effect1_dropShadow_2021_581"/>
<feBlend mode="normal" in="SourceGraphic" in2="effect1_dropShadow_2021_581" result="shape"/>
<feColorMatrix in="SourceAlpha" type="matrix" values="0 0 0 0 0 0 0 0 0 0 0 0 0 0 0 0 0 0 127 0" result="hardAlpha"/>
<feOffset dy="-4"/>
<feGaussianBlur stdDeviation="2"/>
<feComposite in2="hardAlpha" operator="arithmetic" k2="-1" k3="1"/>
<feColorMatrix type="matrix" values="0 0 0 0 0 0 0 0 0 0 0 0 0 0 0 0 0 0 0.16 0"/>
<feBlend mode="normal" in2="shape" result="effect2_innerShadow_2021_581"/>
</filter>
</defs>
</svg>
