<svg width="64" height="64" viewBox="0 0 64 64" fill="none" xmlns="http://www.w3.org/2000/svg">
<rect width="64" height="64" rx="32" fill="#00D39E"/>
<g filter="url(#filter0_di_2021_574)">
<path d="M28.1592 33.2803C29.573 33.2803 30.7197 34.427 30.7197 35.8408V42.2402C30.7197 43.6541 29.573 44.8008 28.1592 44.8008H21.7598C20.3459 44.8008 19.1992 43.6541 19.1992 42.2402V35.8408C19.1992 34.427 20.3459 33.2803 21.7598 33.2803H28.1592ZM39.04 33.2803C42.221 33.2805 44.7998 35.86 44.7998 39.041C44.7996 42.2219 42.2209 44.8006 39.04 44.8008C35.859 44.8008 33.2795 42.222 33.2793 39.041C33.2793 35.8599 35.8589 33.2803 39.04 33.2803ZM21.7598 42.2402H28.1592V35.8408H21.7598V42.2402ZM39.04 35.8408C37.2727 35.8408 35.8398 37.2737 35.8398 39.041C35.8401 40.8081 37.2729 42.2402 39.04 42.2402C40.807 42.24 42.239 40.808 42.2393 39.041C42.2393 37.2738 40.8072 35.841 39.04 35.8408ZM32.0771 18.7402C32.3572 18.7482 32.6331 18.8103 32.8896 18.9229L33.0166 18.9834L33.1387 19.0518C33.3786 19.1964 33.5888 19.3862 33.7568 19.6104L33.8369 19.7246L33.8516 19.749L38.5898 27.3555H38.5889C38.7666 27.6277 38.8819 27.9353 38.9248 28.2568L38.9404 28.4043L38.9443 28.5527C38.9429 28.8984 38.8593 29.2399 38.6992 29.5479C38.5162 29.8999 38.2401 30.1958 37.9014 30.4023C37.5626 30.6088 37.1731 30.7192 36.7764 30.7207H27.2637V30.7197C26.8866 30.7282 26.5132 30.6396 26.1807 30.46C25.8278 30.2693 25.5344 29.9846 25.333 29.6377C25.1317 29.2906 25.0304 28.8943 25.04 28.4932L25.0488 28.3428C25.0809 28 25.1944 27.6695 25.3799 27.3779L30.1484 19.7988V19.7998C30.3285 19.4985 30.5781 19.2434 30.8779 19.0596L31 18.9902C31.289 18.8378 31.6098 18.752 31.9375 18.7402H32.0771ZM27.9111 28.1602H36.0752L32.0137 21.6396L27.9111 28.1602Z" fill="white"/>
</g>
<defs>
<filter id="filter0_di_2021_574" x="15.1992" y="14.7402" width="33.6006" height="38.0605" filterUnits="userSpaceOnUse" color-interpolation-filters="sRGB">
<feFlood flood-opacity="0" result="BackgroundImageFix"/>
<feColorMatrix in="SourceAlpha" type="matrix" values="0 0 0 0 0 0 0 0 0 0 0 0 0 0 0 0 0 0 127 0" result="hardAlpha"/>
<feOffset dy="4"/>
<feGaussianBlur stdDeviation="2"/>
<feComposite in2="hardAlpha" operator="out"/>
<feColorMatrix type="matrix" values="0 0 0 0 0 0 0 0 0 0 0 0 0 0 0 0 0 0 0.16 0"/>
<feBlend mode="normal" in2="BackgroundImageFix" result="effect1_dropShadow_2021_574"/>
<feBlend mode="normal" in="SourceGraphic" in2="effect1_dropShadow_2021_574" result="shape"/>
<feColorMatrix in="SourceAlpha" type="matrix" values="0 0 0 0 0 0 0 0 0 0 0 0 0 0 0 0 0 0 127 0" result="hardAlpha"/>
<feOffset dy="-4"/>
<feGaussianBlur stdDeviation="2"/>
<feComposite in2="hardAlpha" operator="arithmetic" k2="-1" k3="1"/>
<feColorMatrix type="matrix" values="0 0 0 0 0 0 0 0 0 0 0 0 0 0 0 0 0 0 0.16 0"/>
<feBlend mode="normal" in2="shape" result="effect2_innerShadow_2021_574"/>
</filter>
</defs>
</svg>
