<svg width="64" height="64" viewBox="0 0 64 64" fill="none" xmlns="http://www.w3.org/2000/svg">
<rect width="64" height="64" rx="32" fill="#6562EB"/>
<g filter="url(#filter0_di_2041_8856)">
<path d="M20.0459 37.2305C20.7363 37.2305 21.2959 37.7901 21.2959 38.4805V41.04C21.2959 41.3875 21.434 41.7211 21.6797 41.9668C21.9253 42.2123 22.2582 42.3505 22.6055 42.3506H25.166C25.8563 42.3506 26.416 42.9103 26.416 43.6006C26.416 44.2908 25.8563 44.8505 25.166 44.8506H22.6055C21.5952 44.8505 20.6265 44.4487 19.9121 43.7344C19.1976 43.0199 18.7959 42.0505 18.7959 41.04V38.4805C18.7959 37.7901 19.3555 37.2305 20.0459 37.2305ZM43.0859 37.2305C43.7762 37.2305 44.3359 37.7902 44.3359 38.4805V41.04C44.3359 42.0505 43.9342 43.0199 43.2197 43.7344C42.5052 44.4489 41.5359 44.8506 40.5254 44.8506H37.9658C37.2755 44.8506 36.7159 44.2909 36.7158 43.6006C36.7158 42.9102 37.2755 42.3506 37.9658 42.3506H40.5254C40.8728 42.3506 41.2065 42.2125 41.4521 41.9668C41.6978 41.7211 41.8359 41.3875 41.8359 41.04V38.4805C41.8359 37.7901 42.3956 37.2305 43.0859 37.2305ZM31.5664 24.4355C33.722 24.4356 35.829 25.078 37.6182 26.2803C39.2955 27.4075 40.6228 28.9788 41.4531 30.8154L41.6123 31.1855L41.6348 31.2461C41.8236 31.7864 41.8236 32.3747 41.6348 32.915C41.6277 32.9352 41.6204 32.9558 41.6123 32.9756C40.7979 34.9712 39.4071 36.6787 37.6182 37.8809C35.829 39.0831 33.722 39.7256 31.5664 39.7256C29.4108 39.7256 27.3038 39.0831 25.5146 37.8809C23.7257 36.6786 22.3349 34.9711 21.5205 32.9756C21.5125 32.9558 21.5051 32.9352 21.498 32.915C21.3093 32.3747 21.3093 31.7864 21.498 31.2461L21.5205 31.1855C22.3349 29.19 23.7257 27.4825 25.5146 26.2803C27.3038 25.078 29.4108 24.4356 31.5664 24.4355ZM31.5664 26.9355C29.9076 26.9356 28.2861 27.4293 26.9092 28.3545C25.5481 29.2691 24.4881 30.5649 23.8584 32.0781C23.8583 32.0795 23.8583 32.0806 23.8584 32.082C24.488 33.5956 25.5478 34.8919 26.9092 35.8066C28.2861 36.7318 29.9076 37.2256 31.5664 37.2256C33.2252 37.2256 34.8468 36.7318 36.2236 35.8066C37.5845 34.8922 38.6447 33.5968 39.2744 32.084C39.2747 32.0812 39.2748 32.0789 39.2744 32.0762C38.6447 30.5637 37.5842 29.2688 36.2236 28.3545C34.8468 27.4293 33.2252 26.9356 31.5664 26.9355ZM31.5664 29.5508C32.9636 29.5509 34.0957 30.6839 34.0957 32.0811C34.0956 33.4781 32.9635 34.6102 31.5664 34.6104C30.1692 34.6104 29.0363 33.4782 29.0361 32.0811C29.0361 30.6838 30.1691 29.5508 31.5664 29.5508ZM31.5547 32.0527C31.552 32.0539 31.5485 32.056 31.5449 32.0596C31.5414 32.0631 31.5392 32.0667 31.5381 32.0693C31.5373 32.0712 31.5361 32.0746 31.5361 32.0811C31.5362 32.0871 31.5373 32.09 31.5381 32.0918C31.5392 32.0944 31.5414 32.098 31.5449 32.1016C31.5485 32.1052 31.552 32.1082 31.5547 32.1094C31.5565 32.1102 31.56 32.1104 31.5664 32.1104C31.5722 32.1103 31.5753 32.1101 31.5771 32.1094C31.5798 32.1082 31.5833 32.1052 31.5869 32.1016C31.5905 32.0979 31.5936 32.0945 31.5947 32.0918C31.5955 32.0899 31.5957 32.0869 31.5957 32.0811C31.5957 32.0746 31.5955 32.0712 31.5947 32.0693C31.5936 32.0667 31.5905 32.0632 31.5869 32.0596C31.5834 32.0561 31.5798 32.0538 31.5771 32.0527C31.5753 32.052 31.5724 32.0508 31.5664 32.0508C31.56 32.0508 31.5565 32.052 31.5547 32.0527ZM25.166 19.3105C25.8563 19.3106 26.416 19.8702 26.416 20.5605C26.416 21.2509 25.8563 21.8105 25.166 21.8105H22.6055C22.2582 21.8107 21.9253 21.9488 21.6797 22.1943C21.4341 22.4399 21.296 22.7728 21.2959 23.1201V25.6807C21.2958 26.371 20.7362 26.9307 20.0459 26.9307C19.3556 26.9307 18.796 26.371 18.7959 25.6807V23.1201C18.796 22.1098 19.1977 21.1412 19.9121 20.4268C20.6265 19.7123 21.5951 19.3107 22.6055 19.3105H25.166ZM40.5254 19.3105C41.5359 19.3105 42.5052 19.7122 43.2197 20.4268C43.9341 21.1412 44.3358 22.1098 44.3359 23.1201V25.6807C44.3359 26.3709 43.7762 26.9306 43.0859 26.9307C42.3956 26.9307 41.836 26.371 41.8359 25.6807V23.1201C41.8358 22.7729 41.6977 22.4399 41.4521 22.1943C41.2065 21.9487 40.8728 21.8105 40.5254 21.8105H37.9658C37.2755 21.8105 36.7158 21.2509 36.7158 20.5605C36.7158 19.8702 37.2755 19.3105 37.9658 19.3105H40.5254Z" fill="white"/>
</g>
<defs>
<filter id="filter0_di_2041_8856" x="14.7959" y="15.3105" width="33.54" height="37.541" filterUnits="userSpaceOnUse" color-interpolation-filters="sRGB">
<feFlood flood-opacity="0" result="BackgroundImageFix"/>
<feColorMatrix in="SourceAlpha" type="matrix" values="0 0 0 0 0 0 0 0 0 0 0 0 0 0 0 0 0 0 127 0" result="hardAlpha"/>
<feOffset dy="4"/>
<feGaussianBlur stdDeviation="2"/>
<feComposite in2="hardAlpha" operator="out"/>
<feColorMatrix type="matrix" values="0 0 0 0 0 0 0 0 0 0 0 0 0 0 0 0 0 0 0.16 0"/>
<feBlend mode="normal" in2="BackgroundImageFix" result="effect1_dropShadow_2041_8856"/>
<feBlend mode="normal" in="SourceGraphic" in2="effect1_dropShadow_2041_8856" result="shape"/>
<feColorMatrix in="SourceAlpha" type="matrix" values="0 0 0 0 0 0 0 0 0 0 0 0 0 0 0 0 0 0 127 0" result="hardAlpha"/>
<feOffset dy="-4"/>
<feGaussianBlur stdDeviation="2"/>
<feComposite in2="hardAlpha" operator="arithmetic" k2="-1" k3="1"/>
<feColorMatrix type="matrix" values="0 0 0 0 0 0 0 0 0 0 0 0 0 0 0 0 0 0 0.16 0"/>
<feBlend mode="normal" in2="shape" result="effect2_innerShadow_2041_8856"/>
</filter>
</defs>
</svg>
