<svg width="64" height="64" viewBox="0 0 64 64" fill="none" xmlns="http://www.w3.org/2000/svg">
<rect width="64" height="64" rx="32" fill="#FF72D2"/>
<g filter="url(#filter0_di_2021_625)">
<path d="M32.3633 17.9258C39.9714 18.1186 46.0801 24.3474 46.0801 32.002C46.0799 39.7778 39.7759 46.0818 32 46.082C24.2239 46.082 17.9201 39.778 17.9199 32.002C17.9199 24.2258 24.2238 17.9219 32 17.9219L32.3633 17.9258ZM33.2793 24.3213C33.2793 25.0281 32.7068 25.6014 32 25.6016C31.2931 25.6016 30.7197 25.0282 30.7197 24.3213V20.5537C25.3802 21.144 21.1421 25.3821 20.5518 30.7217H24.3193C25.0263 30.7217 25.5996 31.295 25.5996 32.002C25.5994 32.7087 25.0261 33.2812 24.3193 33.2812H20.5518C21.142 38.6209 25.3801 42.8579 30.7197 43.4482V39.6816C30.7197 38.9747 31.2931 38.4014 32 38.4014C32.7068 38.4016 33.2793 38.9748 33.2793 39.6816V43.4482C38.619 42.858 42.857 38.621 43.4473 33.2812H39.6797C38.9729 33.2812 38.3996 32.7087 38.3994 32.002C38.3994 31.295 38.9728 30.7217 39.6797 30.7217H43.4473C42.8569 25.382 38.619 21.1439 33.2793 20.5537V24.3213Z" fill="white"/>
</g>
<defs>
<filter id="filter0_di_2021_625" x="13.9199" y="13.9219" width="36.1602" height="40.1602" filterUnits="userSpaceOnUse" color-interpolation-filters="sRGB">
<feFlood flood-opacity="0" result="BackgroundImageFix"/>
<feColorMatrix in="SourceAlpha" type="matrix" values="0 0 0 0 0 0 0 0 0 0 0 0 0 0 0 0 0 0 127 0" result="hardAlpha"/>
<feOffset dy="4"/>
<feGaussianBlur stdDeviation="2"/>
<feComposite in2="hardAlpha" operator="out"/>
<feColorMatrix type="matrix" values="0 0 0 0 0 0 0 0 0 0 0 0 0 0 0 0 0 0 0.16 0"/>
<feBlend mode="normal" in2="BackgroundImageFix" result="effect1_dropShadow_2021_625"/>
<feBlend mode="normal" in="SourceGraphic" in2="effect1_dropShadow_2021_625" result="shape"/>
<feColorMatrix in="SourceAlpha" type="matrix" values="0 0 0 0 0 0 0 0 0 0 0 0 0 0 0 0 0 0 127 0" result="hardAlpha"/>
<feOffset dy="-4"/>
<feGaussianBlur stdDeviation="2"/>
<feComposite in2="hardAlpha" operator="arithmetic" k2="-1" k3="1"/>
<feColorMatrix type="matrix" values="0 0 0 0 0 0 0 0 0 0 0 0 0 0 0 0 0 0 0.16 0"/>
<feBlend mode="normal" in2="shape" result="effect2_innerShadow_2021_625"/>
</filter>
</defs>
</svg>
