<svg width="120" height="32" viewBox="0 0 120 32" fill="none" xmlns="http://www.w3.org/2000/svg">
<rect width="32" height="32" rx="8" fill="#F59E0B"/>
<path d="M4.0575 6.63213C4.87764 6.15504 5.92669 6.4377 6.40027 7.26397L13.6884 19.9827C14.8722 22.0487 17.4943 22.7566 19.5448 21.5638L26.2274 17.6761C27.0476 17.199 28.0967 17.4825 28.5702 18.3089C29.0437 19.1353 28.7625 20.1921 27.9423 20.6692L21.2596 24.5569C17.5689 26.7039 12.8497 25.4297 10.7186 21.7112L3.43055 8.99151C2.95725 8.16528 3.23772 7.10934 4.0575 6.63213ZM14.3759 13.6644C14.8681 11.8282 16.7554 10.7389 18.5917 11.2308C20.4282 11.7229 21.5183 13.6101 21.0263 15.4466C20.5342 17.283 18.6469 18.373 16.8104 17.8812C14.9739 17.3891 13.8838 15.5009 14.3759 13.6644Z" fill="#FFFBEB"/>
<path d="M60.2793 18.2604C60.391 18.5113 60.4964 18.7815 60.5957 19.07C60.6283 19.1647 60.6583 19.2583 60.6855 19.3503C60.7751 19.0899 60.8694 18.8143 60.9688 18.5241L62.793 13.235H66.1807L61.9736 23.2302L60.2607 27.5593H57.3008L59.2354 22.9538L54.8252 13.235H58.1943L60.2793 18.2604ZM75.1797 20.8171H80.9873V23.6413H72.0156V8.36395H75.1797V20.8171ZM85.2578 23.6403H82.2793V13.2302H85.2578V23.6403ZM90.0195 14.9567C90.0913 14.8437 90.1696 14.7347 90.2529 14.6286C90.6004 14.202 91.0037 13.863 91.4629 13.612C91.922 13.3611 92.4124 13.235 92.9336 13.235C93.1568 13.2351 93.3618 13.2541 93.5479 13.2917C93.7461 13.3293 93.9258 13.3734 94.0869 13.4235L93.2686 16.7556C93.1321 16.6677 92.9457 16.5977 92.71 16.5475C92.4866 16.4848 92.2502 16.4538 92.002 16.4538C91.7292 16.4538 91.4749 16.5039 91.2393 16.6042C91.0035 16.692 90.8049 16.8241 90.6436 16.9997C90.4823 17.1753 90.3522 17.3825 90.2529 17.6208C90.1661 17.8592 90.1221 18.1292 90.1221 18.4304V23.6276H87.125V13.2341H89.9551L90.0195 14.9567ZM97.8115 23.6266H94.833V13.237H97.8115V23.6266ZM113.562 14.6628C113.614 14.5998 113.67 14.5378 113.728 14.4772C114.087 14.101 114.515 13.7997 115.012 13.5739C115.508 13.3481 116.029 13.2351 116.575 13.235C117.32 13.235 117.946 13.3922 118.455 13.7057C118.964 14.0069 119.349 14.465 119.609 15.0798C119.87 15.682 120 16.4223 120 17.3005V23.6266H117.004V17.5456C117.004 17.1441 116.948 16.8111 116.836 16.5475C116.724 16.2842 116.55 16.09 116.314 15.9645C116.091 15.8266 115.812 15.7635 115.477 15.7761C115.216 15.7761 114.974 15.8201 114.751 15.9079C114.528 15.9832 114.335 16.1022 114.174 16.2653C114.013 16.4159 113.882 16.5919 113.783 16.7927C113.696 16.9934 113.652 17.2134 113.652 17.4518V23.6266H110.674V13.235H113.504L113.562 14.6628ZM47.5225 14.5026L51.3086 8.35907H54.0264V23.6257H50.9541L50.9551 17.4313C50.9551 16.302 50.9797 15.285 51.0293 14.3815C51.0475 14.1166 51.0701 13.8524 51.0947 13.5886L48.0693 18.3347H46.8408L43.8936 13.6442C43.9107 13.8573 43.9245 14.0718 43.9365 14.2878C43.9986 15.1661 44.0303 16.2142 44.0303 17.4313L44.0293 23.6257H40.958V8.35907H43.7881L47.5225 14.5026ZM104.333 13.235C105.363 13.235 106.275 13.4612 107.069 13.9128C107.876 14.3645 108.51 14.9795 108.969 15.7575C109.428 16.5354 109.657 17.4266 109.657 18.4304C109.657 19.4341 109.428 20.3253 108.969 21.1032C108.51 21.8811 107.876 22.4953 107.069 22.947C106.275 23.3986 105.363 23.6247 104.333 23.6247C103.303 23.6246 102.385 23.3986 101.578 22.947C100.784 22.4953 100.151 21.8809 99.6797 21.1032C99.2205 20.3253 98.9912 19.4341 98.9912 18.4304C98.9912 17.4265 99.2205 16.5355 99.6797 15.7575C100.151 14.9796 100.784 14.3645 101.578 13.9128C102.385 13.4611 103.303 13.2351 104.333 13.235ZM104.333 15.8141C103.886 15.8142 103.483 15.9272 103.123 16.153C102.776 16.3788 102.503 16.6923 102.305 17.0934C102.131 17.4339 102.038 17.8179 102.025 18.2448V18.6159C102.038 19.0427 102.131 19.426 102.305 19.7663C102.503 20.1553 102.776 20.4633 103.123 20.6891C103.483 20.915 103.886 21.028 104.333 21.028C104.78 21.028 105.177 20.9148 105.524 20.6891C105.872 20.4633 106.145 20.1553 106.344 19.7663C106.517 19.426 106.611 19.0426 106.623 18.6159V18.2448C106.611 17.8179 106.518 17.4339 106.344 17.0934C106.145 16.692 105.872 16.3788 105.524 16.153C105.177 15.9272 104.78 15.8141 104.333 15.8141ZM83.7686 8.36005C84.3267 8.36009 84.7611 8.49824 85.0713 8.77411C85.3815 9.03762 85.5371 9.41462 85.5371 9.90399C85.5371 10.3681 85.3753 10.7443 85.0527 11.0329C84.7425 11.3215 84.3145 11.4664 83.7686 11.4665C83.2101 11.4665 82.769 11.3345 82.4463 11.071C82.1361 10.795 81.9815 10.4058 81.9814 9.90399C81.9814 9.45242 82.1424 9.0822 82.4648 8.79364C82.7875 8.50504 83.2225 8.36005 83.7686 8.36005ZM96.3223 8.36005C96.8807 8.36005 97.3157 8.49805 97.626 8.77411C97.9362 9.03762 98.0908 9.41464 98.0908 9.90399C98.0908 10.3682 97.9291 10.7443 97.6064 11.0329C97.2962 11.3214 96.8682 11.4665 96.3223 11.4665C95.764 11.4665 95.3236 11.3344 95.001 11.071C94.6908 10.7949 94.5352 10.4059 94.5352 9.90399C94.5352 9.45229 94.6969 9.08224 95.0195 8.79364C95.3422 8.50507 95.7763 8.36008 96.3223 8.36005Z" fill="#020618"/>
</svg>
